P2
# Checkerboard texture 64x64, 64 values per line
64 64
255
200 200 200 200 200 200 200 200 100 100 100 100 100 100 100 100 200 200 200 200 200 200 200 200 100 100 100 100 100 100 100 100 200 200 200 200 200 200 200 200 100 100 100 100 100 100 100 100 200 200 200 200 200 200 200 200 100 100 100 100 100 100 100 100
200 200 200 200 200 200 200 200 100 100 100 100 100 100 100 100 200 200 200 200 200 200 200 200 100 100 100 100 100 100 100 100 200 200 200 200 200 200 200 200 100 100 100 100 100 100 100 100 200 200 200 200 200 200 200 200 100 100 100 100 100 100 100 100
200 200 200 200 200 200 200 200 100 100 100 100 100 100 100 100 200 200 200 200 200 200 200 200 100 100 100 100 100 100 100 100 200 200 200 200 200 200 200 200 100 100 100 100 100 100 100 100 200 200 200 200 200 200 200 200 100 100 100 100 100 100 100 100
200 200 200 200 200 200 200 200 100 100 100 100 100 100 100 100 200 200 200 200 200 200 200 200 100 100 100 100 100 100 100 100 200 200 200 200 200 200 200 200 100 100 100 100 100 100 100 100 200 200 200 200 200 200 200 200 100 100 100 100 100 100 100 100
200 200 200 200 200 200 200 200 100 100 100 100 100 100 100 100 200 200 200 200 200 200 200 200 100 100 100 100 100 100 100 100 200 200 200 200 200 200 200 200 100 100 100 100 100 100 100 100 200 200 200 200 200 200 200 200 100 100 100 100 100 100 100 100
200 200 200 200 200 200 200 200 100 100 100 100 100 100 100 100 200 200 200 200 200 200 200 200 100 100 100 100 100 100 100 100 200 200 200 200 200 200 200 200 100 100 100 100 100 100 100 100 200 200 200 200 200 200 200 200 100 100 100 100 100 100 100 100
200 200 200 200 200 200 200 200 100 100 100 100 100 100 100 100 200 200 200 200 200 200 200 200 100 100 100 100 100 100 100 100 200 200 200 200 200 200 200 200 100 100 100 100 100 100 100 100 200 200 200 200 200 200 200 200 100 100 100 100 100 100 100 100
200 200 200 200 200 200 200 200 100 100 100 100 100 100 100 100 200 200 200 200 200 200 200 200 100 100 100 100 100 100 100 100 200 200 200 200 200 200 200 200 100 100 100 100 100 100 100 100 200 200 200 200 200 200 200 200 100 100 100 100 100 100 100 100
100 100 100 100 100 100 100 100 200 200 200 200 200 200 200 200 100 100 100 100 100 100 100 100 200 200 200 200 200 200 200 200 100 100 100 100 100 100 100 100 200 200 200 200 200 200 200 200 100 100 100 100 100 100 100 100 200 200 200 200 200 200 200 200
100 100 100 100 100 100 100 100 200 200 200 200 200 200 200 200 100 100 100 100 100 100 100 100 200 200 200 200 200 200 200 200 100 100 100 100 100 100 100 100 200 200 200 200 200 200 200 200 100 100 100 100 100 100 100 100 200 200 200 200 200 200 200 200
100 100 100 100 100 100 100 100 200 200 200 200 200 200 200 200 100 100 100 100 100 100 100 100 200 200 200 200 200 200 200 200 100 100 100 100 100 100 100 100 200 200 200 200 200 200 200 200 100 100 100 100 100 100 100 100 200 200 200 200 200 200 200 200
100 100 100 100 100 100 100 100 200 200 200 200 200 200 200 200 100 100 100 100 100 100 100 100 200 200 200 200 200 200 200 200 100 100 100 100 100 100 100 100 200 200 200 200 200 200 200 200 100 100 100 100 100 100 100 100 200 200 200 200 200 200 200 200
100 100 100 100 100 100 100 100 200 200 200 200 200 200 200 200 100 100 100 100 100 100 100 100 200 200 200 200 200 200 200 200 100 100 100 100 100 100 100 100 200 200 200 200 200 200 200 200 100 100 100 100 100 100 100 100 200 200 200 200 200 200 200 200
100 100 100 100 100 100 100 100 200 200 200 200 200 200 200 200 100 100 100 100 100 100 100 100 200 200 200 200 200 200 200 200 100 100 100 100 100 100 100 100 200 200 200 200 200 200 200 200 100 100 100 100 100 100 100 100 200 200 200 200 200 200 200 200
100 100 100 100 100 100 100 100 200 200 200 200 200 200 200 200 100 100 100 100 100 100 100 100 200 200 200 200 200 200 200 200 100 100 100 100 100 100 100 100 200 200 200 200 200 200 200 200 100 100 100 100 100 100 100 100 200 200 200 200 200 200 200 200
100 100 100 100 100 100 100 100 200 200 200 200 200 200 200 200 100 100 100 100 100 100 100 100 200 200 200 200 200 200 200 200 100 100 100 100 100 100 100 100 200 200 200 200 200 200 200 200 100 100 100 100 100 100 100 100 200 200 200 200 200 200 200 200
200 200 200 200 200 200 200 200 100 100 100 100 100 100 100 100 200 200 200 200 200 200 200 200 100 100 100 100 100 100 100 100 200 200 200 200 200 200 200 200 100 100 100 100 100 100 100 100 200 200 200 200 200 200 200 200 100 100 100 100 100 100 100 100
200 200 200 200 200 200 200 200 100 100 100 100 100 100 100 100 200 200 200 200 200 200 200 200 100 100 100 100 100 100 100 100 200 200 200 200 200 200 200 200 100 100 100 100 100 100 100 100 200 200 200 200 200 200 200 200 100 100 100 100 100 100 100 100
200 200 200 200 200 200 200 200 100 100 100 100 100 100 100 100 200 200 200 200 200 200 200 200 100 100 100 100 100 100 100 100 200 200 200 200 200 200 200 200 100 100 100 100 100 100 100 100 200 200 200 200 200 200 200 200 100 100 100 100 100 100 100 100
200 200 200 200 200 200 200 200 100 100 100 100 100 100 100 100 200 200 200 200 200 200 200 200 100 100 100 100 100 100 100 100 200 200 200 200 200 200 200 200 100 100 100 100 100 100 100 100 200 200 200 200 200 200 200 200 100 100 100 100 100 100 100 100
200 200 200 200 200 200 200 200 100 100 100 100 100 100 100 100 200 200 200 200 200 200 200 200 100 100 100 100 100 100 100 100 200 200 200 200 200 200 200 200 100 100 100 100 100 100 100 100 200 200 200 200 200 200 200 200 100 100 100 100 100 100 100 100
200 200 200 200 200 200 200 200 100 100 100 100 100 100 100 100 200 200 200 200 200 200 200 200 100 100 100 100 100 100 100 100 200 200 200 200 200 200 200 200 100 100 100 100 100 100 100 100 200 200 200 200 200 200 200 200 100 100 100 100 100 100 100 100
200 200 200 200 200 200 200 200 100 100 100 100 100 100 100 100 200 200 200 200 200 200 200 200 100 100 100 100 100 100 100 100 200 200 200 200 200 200 200 200 100 100 100 100 100 100 100 100 200 200 200 200 200 200 200 200 100 100 100 100 100 100 100 100
200 200 200 200 200 200 200 200 100 100 100 100 100 100 100 100 200 200 200 200 200 200 200 200 100 100 100 100 100 100 100 100 200 200 200 200 200 200 200 200 100 100 100 100 100 100 100 100 200 200 200 200 200 200 200 200 100 100 100 100 100 100 100 100
100 100 100 100 100 100 100 100 200 200 200 200 200 200 200 200 100 100 100 100 100 100 100 100 200 200 200 200 200 200 200 200 100 100 100 100 100 100 100 100 200 200 200 200 200 200 200 200 100 100 100 100 100 100 100 100 200 200 200 200 200 200 200 200
100 100 100 100 100 100 100 100 200 200 200 200 200 200 200 200 100 100 100 100 100 100 100 100 200 200 200 200 200 200 200 200 100 100 100 100 100 100 100 100 200 200 200 200 200 200 200 200 100 100 100 100 100 100 100 100 200 200 200 200 200 200 200 200
100 100 100 100 100 100 100 100 200 200 200 200 200 200 200 200 100 100 100 100 100 100 100 100 200 200 200 200 200 200 200 200 100 100 100 100 100 100 100 100 200 200 200 200 200 200 200 200 100 100 100 100 100 100 100 100 200 200 200 200 200 200 200 200
100 100 100 100 100 100 100 100 200 200 200 200 200 200 200 200 100 100 100 100 100 100 100 100 200 200 200 200 200 200 200 200 100 100 100 100 100 100 100 100 200 200 200 200 200 200 200 200 100 100 100 100 100 100 100 100 200 200 200 200 200 200 200 200
100 100 100 100 100 100 100 100 200 200 200 200 200 200 200 200 100 100 100 100 100 100 100 100 200 200 200 200 200 200 200 200 100 100 100 100 100 100 100 100 200 200 200 200 200 200 200 200 100 100 100 100 100 100 100 100 200 200 200 200 200 200 200 200
100 100 100 100 100 100 100 100 200 200 200 200 200 200 200 200 100 100 100 100 100 100 100 100 200 200 200 200 200 200 200 200 100 100 100 100 100 100 100 100 200 200 200 200 200 200 200 200 100 100 100 100 100 100 100 100 200 200 200 200 200 200 200 200
100 100 100 100 100 100 100 100 200 200 200 200 200 200 200 200 100 100 100 100 100 100 100 100 200 200 200 200 200 200 200 200 100 100 100 100 100 100 100 100 200 200 200 200 200 200 200 200 100 100 100 100 100 100 100 100 200 200 200 200 200 200 200 200
100 100 100 100 100 100 100 100 200 200 200 200 200 200 200 200 100 100 100 100 100 100 100 100 200 200 200 200 200 200 200 200 100 100 100 100 100 100 100 100 200 200 200 200 200 200 200 200 100 100 100 100 100 100 100 100 200 200 200 200 200 200 200 200
200 200 200 200 200 200 200 200 100 100 100 100 100 100 100 100 200 200 200 200 200 200 200 200 100 100 100 100 100 100 100 100 200 200 200 200 200 200 200 200 100 100 100 100 100 100 100 100 200 200 200 200 200 200 200 200 100 100 100 100 100 100 100 100
200 200 200 200 200 200 200 200 100 100 100 100 100 100 100 100 200 200 200 200 200 200 200 200 100 100 100 100 100 100 100 100 200 200 200 200 200 200 200 200 100 100 100 100 100 100 100 100 200 200 200 200 200 200 200 200 100 100 100 100 100 100 100 100
200 200 200 200 200 200 200 200 100 100 100 100 100 100 100 100 200 200 200 200 200 200 200 200 100 100 100 100 100 100 100 100 200 200 200 200 200 200 200 200 100 100 100 100 100 100 100 100 200 200 200 200 200 200 200 200 100 100 100 100 100 100 100 100
200 200 200 200 200 200 200 200 100 100 100 100 100 100 100 100 200 200 200 200 200 200 200 200 100 100 100 100 100 100 100 100 200 200 200 200 200 200 200 200 100 100 100 100 100 100 100 100 200 200 200 200 200 200 200 200 100 100 100 100 100 100 100 100
200 200 200 200 200 200 200 200 100 100 100 100 100 100 100 100 200 200 200 200 200 200 200 200 100 100 100 100 100 100 100 100 200 200 200 200 200 200 200 200 100 100 100 100 100 100 100 100 200 200 200 200 200 200 200 200 100 100 100 100 100 100 100 100
200 200 200 200 200 200 200 200 100 100 100 100 100 100 100 100 200 200 200 200 200 200 200 200 100 100 100 100 100 100 100 100 200 200 200 200 200 200 200 200 100 100 100 100 100 100 100 100 200 200 200 200 200 200 200 200 100 100 100 100 100 100 100 100
200 200 200 200 200 200 200 200 100 100 100 100 100 100 100 100 200 200 200 200 200 200 200 200 100 100 100 100 100 100 100 100 200 200 200 200 200 200 200 200 100 100 100 100 100 100 100 100 200 200 200 200 200 200 200 200 100 100 100 100 100 100 100 100
200 200 200 200 200 200 200 200 100 100 100 100 100 100 100 100 200 200 200 200 200 200 200 200 100 100 100 100 100 100 100 100 200 200 200 200 200 200 200 200 100 100 100 100 100 100 100 100 200 200 200 200 200 200 200 200 100 100 100 100 100 100 100 100
100 100 100 100 100 100 100 100 200 200 200 200 200 200 200 200 100 100 100 100 100 100 100 100 200 200 200 200 200 200 200 200 100 100 100 100 100 100 100 100 200 200 200 200 200 200 200 200 100 100 100 100 100 100 100 100 200 200 200 200 200 200 200 200
100 100 100 100 100 100 100 100 200 200 200 200 200 200 200 200 100 100 100 100 100 100 100 100 200 200 200 200 200 200 200 200 100 100 100 100 100 100 100 100 200 200 200 200 200 200 200 200 100 100 100 100 100 100 100 100 200 200 200 200 200 200 200 200
100 100 100 100 100 100 100 100 200 200 200 200 200 200 200 200 100 100 100 100 100 100 100 100 200 200 200 200 200 200 200 200 100 100 100 100 100 100 100 100 200 200 200 200 200 200 200 200 100 100 100 100 100 100 100 100 200 200 200 200 200 200 200 200
100 100 100 100 100 100 100 100 200 200 200 200 200 200 200 200 100 100 100 100 100 100 100 100 200 200 200 200 200 200 200 200 100 100 100 100 100 100 100 100 200 200 200 200 200 200 200 200 100 100 100 100 100 100 100 100 200 200 200 200 200 200 200 200
100 100 100 100 100 100 100 100 200 200 200 200 200 200 200 200 100 100 100 100 100 100 100 100 200 200 200 200 200 200 200 200 100 100 100 100 100 100 100 100 200 200 200 200 200 200 200 200 100 100 100 100 100 100 100 100 200 200 200 200 200 200 200 200
100 100 100 100 100 100 100 100 200 200 200 200 200 200 200 200 100 100 100 100 100 100 100 100 200 200 200 200 200 200 200 200 100 100 100 100 100 100 100 100 200 200 200 200 200 200 200 200 100 100 100 100 100 100 100 100 200 200 200 200 200 200 200 200
100 100 100 100 100 100 100 100 200 200 200 200 200 200 200 200 100 100 100 100 100 100 100 100 200 200 200 200 200 200 200 200 100 100 100 100 100 100 100 100 200 200 200 200 200 200 200 200 100 100 100 100 100 100 100 100 200 200 200 200 200 200 200 200
100 100 100 100 100 100 100 100 200 200 200 200 200 200 200 200 100 100 100 100 100 100 100 100 200 200 200 200 200 200 200 200 100 100 100 100 100 100 100 100 200 200 200 200 200 200 200 200 100 100 100 100 100 100 100 100 200 200 200 200 200 200 200 200
200 200 200 200 200 200 200 200 100 100 100 100 100 100 100 100 200 200 200 200 200 200 200 200 100 100 100 100 100 100 100 100 200 200 200 200 200 200 200 200 100 100 100 100 100 100 100 100 200 200 200 200 200 200 200 200 100 100 100 100 100 100 100 100
200 200 200 200 200 200 200 200 100 100 100 100 100 100 100 100 200 200 200 200 200 200 200 200 100 100 100 100 100 100 100 100 200 200 200 200 200 200 200 200 100 100 100 100 100 100 100 100 200 200 200 200 200 200 200 200 100 100 100 100 100 100 100 100
200 200 200 200 200 200 200 200 100 100 100 100 100 100 100 100 200 200 200 200 200 200 200 200 100 100 100 100 100 100 100 100 200 200 200 200 200 200 200 200 100 100 100 100 100 100 100 100 200 200 200 200 200 200 200 200 100 100 100 100 100 100 100 100
200 200 200 200 200 200 200 200 100 100 100 100 100 100 100 100 200 200 200 200 200 200 200 200 100 100 100 100 100 100 100 100 200 200 200 200 200 200 200 200 100 100 100 100 100 100 100 100 200 200 200 200 200 200 200 200 100 100 100 100 100 100 100 100
200 200 200 200 200 200 200 200 100 100 100 100 100 100 100 100 200 200 200 200 200 200 200 200 100 100 100 100 100 100 100 100 200 200 200 200 200 200 200 200 100 100 100 100 100 100 100 100 200 200 200 200 200 200 200 200 100 100 100 100 100 100 100 100
200 200 200 200 200 200 200 200 100 100 100 100 100 100 100 100 200 200 200 200 200 200 200 200 100 100 100 100 100 100 100 100 200 200 200 200 200 200 200 200 100 100 100 100 100 100 100 100 200 200 200 200 200 200 200 200 100 100 100 100 100 100 100 100
200 200 200 200 200 200 200 200 100 100 100 100 100 100 100 100 200 200 200 200 200 200 200 200 100 100 100 100 100 100 100 100 200 200 200 200 200 200 200 200 100 100 100 100 100 100 100 100 200 200 200 200 200 200 200 200 100 100 100 100 100 100 100 100
200 200 200 200 200 200 200 200 100 100 100 100 100 100 100 100 200 200 200 200 200 200 200 200 100 100 100 100 100 100 100 100 200 200 200 200 200 200 200 200 100 100 100 100 100 100 100 100 200 200 200 200 200 200 200 200 100 100 100 100 100 100 100 100
100 100 100 100 100 100 100 100 200 200 200 200 200 200 200 200 100 100 100 100 100 100 100 100 200 200 200 200 200 200 200 200 100 100 100 100 100 100 100 100 200 200 200 200 200 200 200 200 100 100 100 100 100 100 100 100 200 200 200 200 200 200 200 200
100 100 100 100 100 100 100 100 200 200 200 200 200 200 200 200 100 100 100 100 100 100 100 100 200 200 200 200 200 200 200 200 100 100 100 100 100 100 100 100 200 200 200 200 200 200 200 200 100 100 100 100 100 100 100 100 200 200 200 200 200 200 200 200
100 100 100 100 100 100 100 100 200 200 200 200 200 200 200 200 100 100 100 100 100 100 100 100 200 200 200 200 200 200 200 200 100 100 100 100 100 100 100 100 200 200 200 200 200 200 200 200 100 100 100 100 100 100 100 100 200 200 200 200 200 200 200 200
100 100 100 100 100 100 100 100 200 200 200 200 200 200 200 200 100 100 100 100 100 100 100 100 200 200 200 200 200 200 200 200 100 100 100 100 100 100 100 100 200 200 200 200 200 200 200 200 100 100 100 100 100 100 100 100 200 200 200 200 200 200 200 200
100 100 100 100 100 100 100 100 200 200 200 200 200 200 200 200 100 100 100 100 100 100 100 100 200 200 200 200 200 200 200 200 100 100 100 100 100 100 100 100 200 200 200 200 200 200 200 200 100 100 100 100 100 100 100 100 200 200 200 200 200 200 200 200
100 100 100 100 100 100 100 100 200 200 200 200 200 200 200 200 100 100 100 100 100 100 100 100 200 200 200 200 200 200 200 200 100 100 100 100 100 100 100 100 200 200 200 200 200 200 200 200 100 100 100 100 100 100 100 100 200 200 200 200 200 200 200 200
100 100 100 100 100 100 100 100 200 200 200 200 200 200 200 200 100 100 100 100 100 100 100 100 200 200 200 200 200 200 200 200 100 100 100 100 100 100 100 100 200 200 200 200 200 200 200 200 100 100 100 100 100 100 100 100 200 200 200 200 200 200 200 200
100 100 100 100 100 100 100 100 200 200 200 200 200 200 200 200 100 100 100 100 100 100 100 100 200 200 200 200 200 200 200 200 100 100 100 100 100 100 100 100 200 200 200 200 200 200 200 200 100 100 100 100 100 100 100 100 200 200 200 200 200 200 200 200